# xmcd
#
# Track frame offsets:
# 150
# 14879
# 31543
# 44045
# 60890
# 74576
# 91926
# 103822
# 119102
# 135698
# 150727
# 166134
# 179796
# 193780
# 206827
#
# Disc length: 2922 seconds
#
#
# Revision: 1
# Processed by: cddbd v1.5.2PL0 Copyright (c) Steve Scherf et al.
# Submitted via: FreeRIP 2.951 
#
DISCID=e10b680f
DTITLE=Grupo Karisma - Porque Brigamos
DYEAR=2005
DGENRE=Country
TTITLE0=Amor Antigo
TTITLE1=Te Amo Te Odeio
TTITLE2=Porque Brigamos
TTITLE3=Demorou
TTITLE4=Que Pena Nós Dois
TTITLE5=Mesa De Bar
TTITLE6=Só Por Amor
TTITLE7=Promessas
TTITLE8=Olhos Azuis
TTITLE9=Meus Braços Te Esperam
TTITLE10=Vida Do Avesso
TTITLE11=Três Beijinhos Pra Casar
TTITLE12=Volta Pra Mim
TTITLE13=De Frente Com a Solidão
TTITLE14=Acabou
EXTD=ramongabriel@walla.com
EXTT0=
EXTT1=
EXTT2=
EXTT3=
EXTT4=
EXTT5=
EXTT6=
EXTT7=
EXTT8=
EXTT9=
EXTT10=
EXTT11=
EXTT12=
EXTT13=
EXTT14=
PLAYORDER=
